<svg width="216" height="393" viewBox="0 0 216 393" fill="none" xmlns="http://www.w3.org/2000/svg">
<path d="M200.316 184.182L47.67 216.357C43.2587 217.281 38.6608 216.418 34.885 213.957C31.1092 211.496 28.4638 207.638 27.5292 203.229L1.33544 78.9591C0.41081 74.5478 1.27372 69.9499 3.73489 66.1741C6.19606 62.3983 10.0545 59.7529 14.4636 58.8184L167.11 26.6433C171.521 25.7187 176.119 26.5816 179.895 29.0428C183.67 31.5039 186.316 35.3624 187.25 39.7715L213.444 164.041C214.369 168.452 213.506 173.05 211.045 176.826C208.583 180.602 204.725 183.247 200.316 184.182V184.182ZM14.8762 60.7754C10.9858 61.6 7.58128 63.9342 5.40966 67.2658C3.23804 70.5974 2.47662 74.6543 3.29244 78.5466L29.4862 202.816C30.3109 206.706 32.645 210.111 35.9766 212.283C39.3082 214.454 43.3652 215.216 47.2575 214.4L199.903 182.225C203.794 181.4 207.198 179.066 209.37 175.734C211.541 172.403 212.303 168.346 211.487 164.453L185.293 40.184C184.469 36.2936 182.134 32.8891 178.803 30.7175C175.471 28.5459 171.414 27.7845 167.522 28.6003L14.8762 60.7754Z" fill="#3F3D56"/>
<path d="M157.625 67.6184L80.5868 83.8567C79.9126 84.0132 79.2042 83.9078 78.6047 83.562C78.0053 83.2161 77.5595 82.6556 77.3575 81.9937C77.2651 81.6484 77.244 81.288 77.2955 80.9344C77.347 80.5808 77.4701 80.2414 77.6571 79.9369C77.8441 79.6324 78.0912 79.3692 78.3833 79.1633C78.6754 78.9574 79.0064 78.8133 79.3561 78.7396L157.776 62.21C160.838 63.9355 159.871 67.1452 157.624 67.6187L157.625 67.6184Z" fill="#CCCCCC"/>
<path d="M160.474 81.1315L83.4352 97.3698C82.761 97.5263 82.0526 97.421 81.4531 97.0751C80.8537 96.7293 80.4079 96.1687 80.2059 95.5068C80.1135 95.1616 80.0924 94.8012 80.1439 94.4475C80.1954 94.0939 80.3185 93.7545 80.5055 93.45C80.6925 93.1455 80.9396 92.8823 81.2317 92.6764C81.5238 92.4706 81.8548 92.3264 82.2045 92.2527L160.625 75.723C163.687 77.4486 162.719 80.6582 160.473 81.1317L160.474 81.1315Z" fill="#CCCCCC"/>
<path d="M68.403 108.574L44.8916 113.53C44.1238 113.691 43.3234 113.541 42.6662 113.112C42.009 112.684 41.5485 112.012 41.3859 111.245L35.5377 83.4995C35.3767 82.7317 35.5268 81.9313 35.9552 81.274C36.3836 80.6168 37.0553 80.1564 37.8228 79.9938L61.3342 75.038C62.102 74.8772 62.9022 75.0275 63.5594 75.4559C64.2165 75.8842 64.677 76.5557 64.8398 77.3231L70.6881 105.068C70.8491 105.836 70.6989 106.637 70.2705 107.294C69.8421 107.951 69.1705 108.412 68.403 108.574V108.574Z" fill="#CCCCCC"/>
<path d="M166.081 108.847L48.5067 133.629C47.8325 133.786 47.1241 133.681 46.5247 133.335C45.9252 132.989 45.4794 132.428 45.2774 131.766C45.185 131.421 45.164 131.061 45.2155 130.707C45.267 130.354 45.39 130.014 45.577 129.71C45.764 129.405 46.0111 129.142 46.3032 128.936C46.5953 128.73 46.9263 128.586 47.276 128.512L166.234 103.438C169.296 105.164 168.328 108.373 166.081 108.847V108.847Z" fill="#CCCCCC"/>
<path d="M168.931 122.364L51.3558 147.146C50.6817 147.303 49.9733 147.198 49.3738 146.852C48.7744 146.506 48.3285 145.945 48.1265 145.283C48.0341 144.938 48.0131 144.578 48.0646 144.224C48.1161 143.871 48.2391 143.531 48.4261 143.227C48.6131 142.922 48.8602 142.659 49.1523 142.453C49.4445 142.247 49.7755 142.103 50.1251 142.029L169.083 116.955C172.145 118.681 171.177 121.89 168.931 122.364V122.364Z" fill="#CCCCCC"/>
<path d="M171.778 135.872L54.2033 160.655C53.5291 160.811 52.8207 160.706 52.2212 160.36C51.6218 160.014 51.176 159.453 50.9739 158.792C50.8816 158.446 50.8605 158.086 50.912 157.732C50.9635 157.379 51.0865 157.039 51.2735 156.735C51.4606 156.43 51.7077 156.167 51.9998 155.961C52.2919 155.755 52.6229 155.611 52.9725 155.537L171.93 130.463C174.992 132.189 174.024 135.398 171.778 135.872H171.778Z" fill="#CCCCCC"/>
<path d="M174.627 149.388L57.0521 174.171C56.378 174.327 55.6696 174.222 55.0701 173.876C54.4706 173.53 54.0248 172.969 53.8228 172.308C53.7304 171.962 53.7094 171.602 53.7609 171.248C53.8124 170.895 53.9354 170.555 54.1224 170.251C54.3094 169.946 54.5565 169.683 54.8486 169.477C55.1407 169.271 55.4717 169.127 55.8214 169.053L174.779 143.979C177.841 145.705 176.873 148.914 174.627 149.388V149.388Z" fill="#CCCCCC"/>
<path d="M177.474 162.897L59.8995 187.68C59.2254 187.836 58.5169 187.731 57.9175 187.385C57.318 187.039 56.8722 186.479 56.6702 185.817C56.5778 185.471 56.5568 185.111 56.6083 184.757C56.6598 184.404 56.7828 184.064 56.9698 183.76C57.1568 183.455 57.4039 183.192 57.6961 182.986C57.9882 182.78 58.3192 182.636 58.6688 182.563L177.626 157.488C180.688 159.214 179.721 162.424 177.474 162.897V162.897Z" fill="#CCCCCC"/>
<path d="M196.229 101.03C195.962 101.515 195.733 102.02 195.546 102.54L147.412 114.485L139.039 105.822L124.314 116.75L137.647 133.526C138.724 134.882 140.212 135.851 141.887 136.289C143.562 136.727 145.333 136.609 146.936 135.954L199.165 114.612C200.882 115.876 202.943 116.587 205.073 116.651C207.204 116.715 209.304 116.128 211.093 114.97C212.882 113.811 214.277 112.136 215.09 110.165C215.904 108.195 216.099 106.024 215.648 103.94C215.198 101.857 214.124 99.9597 212.569 98.5016C211.014 97.0434 209.052 96.0932 206.944 95.7773C204.836 95.4614 202.681 95.7948 200.767 96.7331C198.853 97.6715 197.27 99.1704 196.229 101.03L196.229 101.03Z" fill="#FFB8B8"/>
<path d="M31.9321 207.323C33.4327 206.859 34.8134 206.072 35.9771 205.018C37.1407 203.963 38.0589 202.666 38.667 201.218C39.2751 199.77 39.5583 198.206 39.4967 196.637C39.4351 195.067 39.0301 193.531 38.3104 192.135L71.4346 100.068L48.4309 95.991L23.1043 187.772C20.8395 189.137 19.1539 191.285 18.3669 193.809C17.5799 196.333 17.7463 199.058 18.8344 201.468C19.9226 203.878 21.8569 205.805 24.2709 206.884C26.6849 207.963 29.4108 208.119 31.9321 207.323V207.323Z" fill="#FFB8B8"/>
<path d="M67.2279 116.411L44.5154 107.694C43.8692 107.446 43.284 107.061 42.7997 106.567C42.3155 106.072 41.9435 105.479 41.7091 104.828C41.4747 104.176 41.3835 103.482 41.4415 102.793C41.4996 102.103 41.7057 101.434 42.0457 100.831L53.9607 79.705C55.2493 76.4071 57.7927 73.7546 61.0337 72.3288C64.2746 70.9029 67.9486 70.8201 71.2505 72.0985C74.5524 73.3768 77.2128 75.9121 78.6486 79.1485C80.0845 82.385 80.1787 86.0587 78.9107 89.3646L73.6551 112.962C73.5045 113.638 73.2099 114.273 72.7916 114.824C72.3734 115.376 71.8411 115.831 71.2312 116.158C70.6212 116.485 69.9479 116.677 69.2571 116.721C68.5663 116.764 67.8742 116.659 67.2279 116.411V116.411Z" fill="#5A8EFF"/>
<path d="M118.493 380.175H130.752L136.585 332.887L118.491 332.888L118.493 380.175Z" fill="#FFB8B8"/>
<path d="M115.365 376.173L139.509 376.172H139.51C141.531 376.172 143.532 376.57 145.398 377.343C147.265 378.116 148.961 379.249 150.39 380.678C151.819 382.107 152.952 383.803 153.726 385.67C154.499 387.537 154.897 389.537 154.897 391.558V392.058L115.366 392.06L115.365 376.173Z" fill="#2F2E41"/>
<path d="M49.493 380.175H61.752L67.585 332.887L49.491 332.888L49.493 380.175Z" fill="#FFB8B8"/>
<path d="M46.3655 376.173L70.5093 376.172H70.5103C72.5309 376.172 74.5317 376.57 76.3984 377.343C78.2652 378.116 79.9614 379.249 81.3902 380.678C82.8189 382.107 83.9523 383.803 84.7256 385.67C85.4988 387.537 85.8967 389.537 85.8967 391.558V392.058L46.3662 392.06L46.3655 376.173Z" fill="#2F2E41"/>
<path d="M62.3452 361.143H46.8305C46.2216 361.142 45.619 361.019 45.0592 360.779C44.4995 360.539 43.9942 360.189 43.574 359.748C43.1538 359.307 42.8273 358.786 42.6145 358.215C42.4016 357.645 42.3067 357.037 42.3356 356.429L49.705 198.097L50.1694 198.084L125.089 196.131L139.749 354.554C139.805 355.148 139.743 355.747 139.566 356.316C139.389 356.886 139.1 357.415 138.716 357.872C138.333 358.329 137.862 358.705 137.332 358.978C136.802 359.252 136.223 359.417 135.628 359.465L118.202 360.858C117.107 360.945 116.018 360.629 115.14 359.97C114.262 359.31 113.656 358.352 113.435 357.276L91.1445 244.5C91.0837 244.157 90.902 243.848 90.6324 243.628C90.3629 243.408 90.0233 243.292 89.6755 243.301H89.6694C89.3203 243.293 88.9801 243.411 88.7109 243.633C88.4417 243.856 88.2614 244.167 88.2031 244.512L66.7604 357.512C66.5574 358.534 66.0066 359.454 65.2016 360.116C64.3967 360.778 63.3873 361.141 62.3452 361.143V361.143Z" fill="#2F2E41"/>
<path d="M90.7649 56.8846C104.33 56.8846 115.326 45.8883 115.326 32.3236C115.326 18.7589 104.33 7.76257 90.7649 7.76257C77.2002 7.76257 66.2039 18.7589 66.2039 32.3236C66.2039 45.8883 77.2002 56.8846 90.7649 56.8846Z" fill="#FFB8B8"/>
<path d="M82.5292 216.651C70.8229 216.651 58.799 213.574 48.8312 204.476C48.3008 203.996 47.8913 203.396 47.636 202.727C47.3806 202.059 47.2867 201.339 47.3618 200.627C48.4287 191.041 53.604 141.546 50.6894 108.483C50.1206 102.308 50.995 96.0844 53.2433 90.3046C55.4917 84.5247 59.0526 79.3465 63.645 75.1786C68.157 71.0202 73.5736 67.9672 79.4675 66.2606C85.3614 64.5539 91.5713 64.2404 97.6071 65.3446H97.6074C97.9133 65.3993 98.2189 65.4569 98.5251 65.5155C118.189 69.3212 131.851 87.5194 130.305 107.847C128.049 137.507 126.027 177.626 129.202 200.314C129.334 201.243 129.172 202.189 128.739 203.02C128.306 203.852 127.623 204.527 126.788 204.951C119.563 208.601 101.461 216.651 82.5292 216.651Z" fill="#5A8EFF"/>
<path d="M114.579 118.178C114.002 117.794 113.515 117.291 113.151 116.702C112.787 116.114 112.555 115.453 112.469 114.766L109.477 90.7766C108.527 87.365 108.969 83.7159 110.705 80.6294C112.441 77.5429 115.331 75.2708 118.74 74.3114C122.149 73.352 125.799 73.7835 128.891 75.5113C131.982 77.2391 134.262 80.1223 135.231 83.5286L145.087 105.69C145.368 106.322 145.51 107.008 145.502 107.7C145.495 108.392 145.338 109.075 145.043 109.701C144.748 110.327 144.321 110.882 143.792 111.328C143.263 111.775 142.644 112.102 141.977 112.287L118.54 118.809C117.873 118.995 117.174 119.035 116.49 118.926C115.807 118.817 115.155 118.562 114.579 118.178V118.178Z" fill="#5A8EFF"/>
<path d="M82.1909 56.5378C79.8661 56.5809 77.5559 56.1629 75.3936 55.308C74.4423 54.9414 73.4547 54.64 72.505 54.2731C64.1184 51.0329 58.5938 42.1012 58.396 33.1126C58.1981 24.124 62.853 15.3998 69.7651 9.65025C76.6772 3.90074 85.6301 0.948912 94.5949 0.266312C104.252 -0.468958 115.125 1.9799 120.521 10.0219C121.958 12.1625 122.962 14.7597 122.111 17.3444C121.856 18.1243 121.401 18.8236 120.791 19.3724C118.381 21.5164 115.978 19.9043 113.522 19.7619C110.145 19.5661 107.113 22.2992 106.023 25.5009C104.933 28.7027 105.412 32.2275 106.293 35.4932C106.963 37.4583 107.386 39.4994 107.551 41.5691C107.622 42.607 107.427 43.6457 106.984 44.587C106.541 45.5283 105.865 46.3408 105.02 46.9476C102.91 48.223 100.139 47.4849 98.0279 46.2116C95.9168 44.9383 94.0926 43.1678 91.8122 42.2309C89.5317 41.2939 86.468 41.5017 85.1407 43.5793C84.7188 44.3353 84.4333 45.1596 84.2972 46.0145C83.1073 51.4358 83.3808 51.1165 82.1909 56.5378V56.5378Z" fill="#2F2E41"/>
</svg>
